<svg width="24" height="24" viewBox="0 0 24 24" fill="none" xmlns="http://www.w3.org/2000/svg">
<path d="M12 7.49998C11.11 7.49998 10.2399 7.7639 9.49992 8.25837C8.75989 8.75284 8.18312 9.45564 7.84252 10.2779C7.50193 11.1002 7.41282 12.005 7.58645 12.8779C7.76008 13.7508 8.18867 14.5526 8.818 15.182C9.44734 15.8113 10.2492 16.2399 11.1221 16.4135C11.995 16.5872 12.8998 16.498 13.7221 16.1574C14.5443 15.8168 15.2471 15.2401 15.7416 14.5C16.2361 13.76 16.5 12.89 16.5 12C16.4987 10.8069 16.0242 9.66302 15.1806 8.81937C14.3369 7.97573 13.1931 7.50122 12 7.49998ZM12 15C11.4066 15 10.8266 14.824 10.3333 14.4944C9.83992 14.1647 9.45541 13.6962 9.22834 13.148C9.00128 12.5999 8.94187 11.9967 9.05763 11.4147C9.17338 10.8328 9.4591 10.2982 9.87866 9.87866C10.2982 9.4591 10.8328 9.17338 11.4147 9.05763C11.9967 8.94187 12.5999 9.00128 13.148 9.22834C13.6962 9.45541 14.1647 9.83992 14.4944 10.3333C14.824 10.8266 15 11.4066 15 12C15 12.7956 14.6839 13.5587 14.1213 14.1213C13.5587 14.6839 12.7956 15 12 15ZM20.25 12.2025C20.2537 12.0675 20.2537 11.9325 20.25 11.7975L21.6487 10.05C21.7221 9.95823 21.7728 9.85053 21.7969 9.73557C21.821 9.62061 21.8178 9.50159 21.7875 9.38811C21.5582 8.52617 21.2152 7.69859 20.7675 6.92717C20.7089 6.82622 20.6275 6.74034 20.5298 6.67638C20.4322 6.61242 20.3209 6.57213 20.205 6.55873L17.9812 6.31123C17.8887 6.21373 17.795 6.11998 17.7 6.02998L17.4375 3.80061C17.424 3.68456 17.3836 3.57326 17.3194 3.4756C17.2553 3.37794 17.1692 3.29662 17.0681 3.23811C16.2964 2.79124 15.4689 2.44858 14.6072 2.21904C14.4936 2.18885 14.3746 2.18577 14.2596 2.21003C14.1446 2.23429 14.037 2.28523 13.9453 2.35873L12.2025 3.74998C12.0675 3.74998 11.9325 3.74998 11.7975 3.74998L10.05 2.35404C9.95823 2.2807 9.85053 2.22994 9.73557 2.20584C9.62061 2.18174 9.50159 2.18498 9.38811 2.21529C8.52631 2.44501 7.69878 2.788 6.92717 3.23529C6.82622 3.29391 6.74034 3.37529 6.67638 3.47294C6.61242 3.57059 6.57213 3.68183 6.55873 3.79779L6.31123 6.02529C6.21373 6.11842 6.11998 6.21217 6.02998 6.30654L3.80061 6.56248C3.68456 6.57598 3.57326 6.61641 3.4756 6.68054C3.37794 6.74467 3.29662 6.83073 3.23811 6.93186C2.79124 7.70357 2.44858 8.53108 2.21904 9.3928C2.18885 9.50635 2.18577 9.62541 2.21003 9.74038C2.23429 9.85534 2.28523 9.963 2.35873 10.0547L3.74998 11.7975C3.74998 11.9325 3.74998 12.0675 3.74998 12.2025L2.35404 13.95C2.2807 14.0417 2.22994 14.1494 2.20584 14.2644C2.18174 14.3794 2.18498 14.4984 2.21529 14.6119C2.4446 15.4738 2.78761 16.3014 3.23529 17.0728C3.29391 17.1737 3.37529 17.2596 3.47294 17.3236C3.57059 17.3875 3.68183 17.4278 3.79779 17.4412L6.02154 17.6887C6.11467 17.7862 6.20842 17.88 6.3028 17.97L6.56248 20.1994C6.57598 20.3154 6.61641 20.4267 6.68054 20.5244C6.74467 20.622 6.83073 20.7033 6.93186 20.7619C7.70357 21.2087 8.53108 21.5514 9.3928 21.7809C9.50635 21.8111 9.62541 21.8142 9.74038 21.7899C9.85534 21.7657 9.963 21.7147 10.0547 21.6412L11.7975 20.25C11.9325 20.2537 12.0675 20.2537 12.2025 20.25L13.95 21.6487C14.0417 21.7221 14.1494 21.7728 14.2644 21.7969C14.3794 21.821 14.4984 21.8178 14.6119 21.7875C15.4738 21.5582 16.3014 21.2152 17.0728 20.7675C17.1737 20.7089 17.2596 20.6275 17.3236 20.5298C17.3875 20.4322 17.4278 20.3209 17.4412 20.205L17.6887 17.9812C17.7862 17.8887 17.88 17.795 17.97 17.7L20.1994 17.4375C20.3154 17.424 20.4267 17.3836 20.5244 17.3194C20.622 17.2553 20.7033 17.1692 20.7619 17.0681C21.2087 16.2964 21.5514 15.4689 21.7809 14.6072C21.8111 14.4936 21.8142 14.3746 21.7899 14.2596C21.7657 14.1446 21.7147 14.037 21.6412 13.9453L20.25 12.2025ZM18.7406 11.5931C18.7565 11.8641 18.7565 12.1358 18.7406 12.4069C18.7294 12.5924 18.7876 12.7755 18.9037 12.9206L20.234 14.5828C20.0814 15.0679 19.8859 15.5385 19.65 15.989L17.5312 16.229C17.3467 16.2495 17.1764 16.3377 17.0531 16.4765C16.8726 16.6795 16.6804 16.8717 16.4775 17.0522C16.3387 17.1754 16.2505 17.3458 16.23 17.5303L15.9947 19.6472C15.5442 19.8832 15.0736 20.0787 14.5884 20.2312L12.9253 18.9009C12.7922 18.7946 12.6269 18.7367 12.4565 18.7369H12.4115C12.1405 18.7528 11.8688 18.7528 11.5978 18.7369C11.4122 18.7257 11.2292 18.7838 11.084 18.9L9.41717 20.2312C8.93204 20.0786 8.46144 19.8831 8.01092 19.6472L7.77092 17.5312C7.75044 17.3467 7.66225 17.1764 7.52342 17.0531C7.32046 16.8726 7.12825 16.6804 6.94779 16.4775C6.82454 16.3387 6.65418 16.2505 6.46967 16.23L4.35279 15.9937C4.11672 15.5433 3.92126 15.0727 3.76873 14.5875L5.09904 12.9244C5.21521 12.7792 5.27334 12.5962 5.26217 12.4106C5.24623 12.1396 5.24623 11.8679 5.26217 11.5969C5.27334 11.4113 5.21521 11.2282 5.09904 11.0831L3.76873 9.41717C3.92138 8.93204 4.11684 8.46144 4.35279 8.01092L6.46873 7.77092C6.65325 7.75044 6.82361 7.66225 6.94686 7.52342C7.12732 7.32046 7.31952 7.12825 7.52248 6.94779C7.66187 6.82446 7.75042 6.65371 7.77092 6.46873L8.00623 4.35279C8.4567 4.11672 8.92731 3.92126 9.41248 3.76873L11.0756 5.09904C11.2207 5.21521 11.4038 5.27334 11.5894 5.26217C11.8604 5.24623 12.1321 5.24623 12.4031 5.26217C12.5887 5.27334 12.7717 5.21521 12.9169 5.09904L14.5828 3.76873C15.0679 3.92138 15.5385 4.11684 15.989 4.35279L16.229 6.46873C16.2495 6.65325 16.3377 6.82361 16.4765 6.94686C16.6795 7.12732 16.8717 7.31952 17.0522 7.52248C17.1754 7.66131 17.3458 7.7495 17.5303 7.76998L19.6472 8.00529C19.8832 8.45577 20.0787 8.92638 20.2312 9.41154L18.9009 11.0747C18.7836 11.221 18.7254 11.406 18.7378 11.5931H18.7406Z" fill="#60646C"/>
</svg>
