<svg width="24" height="24" viewBox="0 0 24 24" fill="none" xmlns="http://www.w3.org/2000/svg">
<path d="M16.5 21.75C16.5 21.9489 16.421 22.1397 16.2803 22.2803C16.1397 22.421 15.9489 22.5 15.75 22.5H8.25C8.05109 22.5 7.86032 22.421 7.71967 22.2803C7.57902 22.1397 7.5 21.9489 7.5 21.75C7.5 21.5511 7.57902 21.3603 7.71967 21.2197C7.86032 21.079 8.05109 21 8.25 21H15.75C15.9489 21 16.1397 21.079 16.2803 21.2197C16.421 21.3603 16.5 21.5511 16.5 21.75ZM20.25 9.75001C20.2532 11.0003 19.9708 12.2348 19.4242 13.3593C18.8776 14.4838 18.0814 15.4686 17.0963 16.2385C16.912 16.3797 16.7626 16.5611 16.6592 16.7689C16.5559 16.9767 16.5014 17.2054 16.5 17.4375V18C16.5 18.3978 16.342 18.7794 16.0607 19.0607C15.7794 19.342 15.3978 19.5 15 19.5H9C8.60218 19.5 8.22065 19.342 7.93934 19.0607C7.65804 18.7794 7.5 18.3978 7.5 18V17.4375C7.49985 17.2082 7.44712 16.982 7.34587 16.7762C7.24462 16.5705 7.09754 16.3907 6.91594 16.2506C5.93325 15.4853 5.13754 14.5065 4.58904 13.3882C4.04054 12.2699 3.75362 11.0415 3.75 9.79595C3.72563 5.32783 7.33688 1.60689 11.8013 1.50001C12.9013 1.47351 13.9955 1.66731 15.0195 2.07003C16.0434 2.47275 16.9765 3.07624 17.7638 3.84497C18.5511 4.61371 19.1766 5.53217 19.6035 6.54628C20.0305 7.5604 20.2503 8.64968 20.25 9.75001ZM18.75 9.75001C18.7503 8.8497 18.5704 7.95842 18.221 7.12866C17.8717 6.2989 17.3598 5.54741 16.7157 4.91843C16.0715 4.28946 15.308 3.7957 14.4701 3.46624C13.6322 3.13678 12.7369 2.97826 11.8369 3.00001C8.18063 3.08626 5.23031 6.13033 5.25 9.78658C5.25343 10.8053 5.4885 11.8098 5.93743 12.7242C6.38635 13.6387 7.03738 14.439 7.84125 15.0647C8.2026 15.3456 8.49489 15.7055 8.69574 16.1168C8.89658 16.528 9.00066 16.9798 9 17.4375V18H15V17.4375C15.001 16.9785 15.1069 16.5258 15.3095 16.1139C15.5121 15.7021 15.8061 15.3419 16.1691 15.061C16.9754 14.4308 17.6271 13.6247 18.0744 12.7043C18.5217 11.7839 18.7528 10.7734 18.75 9.75001ZM17.2397 8.87439C17.0452 7.7881 16.5226 6.78748 15.7422 6.00723C14.9618 5.22698 13.961 4.70457 12.8747 4.51033C12.7776 4.49395 12.6781 4.49687 12.5821 4.51892C12.4861 4.54096 12.3954 4.5817 12.3151 4.63881C12.2349 4.69592 12.1666 4.76828 12.1143 4.85175C12.062 4.93523 12.0267 5.02819 12.0103 5.12533C11.9939 5.22246 11.9969 5.32188 12.0189 5.41788C12.0409 5.51389 12.0817 5.60462 12.1388 5.68489C12.1959 5.76515 12.2683 5.83338 12.3517 5.88568C12.4352 5.93798 12.5282 5.97333 12.6253 5.9897C14.1788 6.25126 15.4969 7.56939 15.7603 9.12564C15.79 9.30032 15.8806 9.45885 16.0159 9.57313C16.1513 9.68742 16.3228 9.75008 16.5 9.75001C16.5424 9.74976 16.5847 9.74631 16.6266 9.7397C16.8226 9.70623 16.9973 9.59627 17.1123 9.434C17.2273 9.27173 17.2731 9.07044 17.2397 8.87439Z" fill="#60646C"/>
</svg>
