<svg width="24" height="24" viewBox="0 0 24 24" fill="none" xmlns="http://www.w3.org/2000/svg">
<path d="M21.7378 10.6875L5.98779 1.6978C5.72212 1.54825 5.41719 1.48319 5.11362 1.51131C4.81005 1.53942 4.52226 1.65937 4.28858 1.85517C4.05489 2.05098 3.88643 2.31334 3.80561 2.6073C3.7248 2.90126 3.73548 3.21287 3.83623 3.50061L6.70779 12L3.83623 20.5003C3.75631 20.7265 3.73181 20.9686 3.76479 21.2062C3.79776 21.4438 3.88725 21.67 4.02573 21.8659C4.16422 22.0618 4.34767 22.2216 4.56069 22.3319C4.77371 22.4423 5.01008 22.4999 5.24998 22.5C5.5106 22.4994 5.76668 22.4316 5.99341 22.3031L21.7359 13.2984C21.9681 13.1684 22.1615 12.9788 22.2963 12.7493C22.4311 12.5198 22.5024 12.2586 22.5028 11.9925C22.5033 11.7263 22.433 11.4648 22.299 11.2348C22.1651 11.0048 21.9723 10.8146 21.7406 10.6837L21.7378 10.6875ZM5.24998 21C5.25038 20.9962 5.25038 20.9925 5.24998 20.9887L8.0381 12.75H13.5C13.6989 12.75 13.8897 12.671 14.0303 12.5303C14.171 12.3897 14.25 12.1989 14.25 12C14.25 11.8011 14.171 11.6103 14.0303 11.4697C13.8897 11.329 13.6989 11.25 13.5 11.25H8.0381L5.2556 3.01499C5.25468 3.00968 5.25277 3.00459 5.24998 2.99999L21 11.9841L5.24998 21Z" fill="#60646C"/>
</svg>
